<svg width="11" height="11" viewBox="0 0 11 11" fill="none" xmlns="http://www.w3.org/2000/svg">
<path d="M2.75 5.5C2.75 5.40883 2.78622 5.3214 2.85068 5.25693C2.91515 5.19247 3.00258 5.15625 3.09375 5.15625H5.15625V3.09375C5.15625 3.00258 5.19247 2.91515 5.25693 2.85068C5.3214 2.78622 5.40883 2.75 5.5 2.75C5.59117 2.75 5.6786 2.78622 5.74307 2.85068C5.80753 2.91515 5.84375 3.00258 5.84375 3.09375V5.15625H7.90625C7.99742 5.15625 8.08485 5.19247 8.14932 5.25693C8.21378 5.3214 8.25 5.40883 8.25 5.5C8.25 5.59117 8.21378 5.6786 8.14932 5.74307C8.08485 5.80753 7.99742 5.84375 7.90625 5.84375H5.84375V7.90625C5.84375 7.99742 5.80753 8.08485 5.74307 8.14932C5.6786 8.21378 5.59117 8.25 5.5 8.25C5.40883 8.25 5.3214 8.21378 5.25693 8.14932C5.19247 8.08485 5.15625 7.99742 5.15625 7.90625V5.84375H3.09375C3.00258 5.84375 2.91515 5.80753 2.85068 5.74307C2.78622 5.6786 2.75 5.59117 2.75 5.5ZM5.5 11C6.95869 11 8.35764 10.4205 9.38909 9.38909C10.4205 8.35764 11 6.95869 11 5.5C11 4.04131 10.4205 2.64236 9.38909 1.61091C8.35764 0.579463 6.95869 0 5.5 0C4.04131 0 2.64236 0.579463 1.61091 1.61091C0.579463 2.64236 0 4.04131 0 5.5C0 6.95869 0.579463 8.35764 1.61091 9.38909C2.64236 10.4205 4.04131 11 5.5 11V11ZM5.5 10.3125C4.86801 10.3125 4.24222 10.188 3.65834 9.94617C3.07446 9.70432 2.54393 9.34983 2.09705 8.90295C1.65017 8.45607 1.29568 7.92554 1.05383 7.34166C0.811979 6.75778 0.6875 6.13199 0.6875 5.5C0.6875 4.86801 0.811979 4.24222 1.05383 3.65834C1.29568 3.07446 1.65017 2.54393 2.09705 2.09705C2.54393 1.65017 3.07446 1.29568 3.65834 1.05383C4.24222 0.811979 4.86801 0.6875 5.5 0.6875C6.77635 0.6875 8.00043 1.19453 8.90295 2.09705C9.80547 2.99957 10.3125 4.22365 10.3125 5.5C10.3125 6.77635 9.80547 8.00043 8.90295 8.90295C8.00043 9.80547 6.77635 10.3125 5.5 10.3125Z" fill="#484848"/>
</svg>
