<svg width="14" height="14" viewBox="0 0 14 14" fill="none" xmlns="http://www.w3.org/2000/svg">
<path d="M1.16667 7L4.08334 9.33333V7.58333H9.33334V6.41666H4.08334V4.66666L1.16667 7Z" fill="#484848"/>
<path d="M7.58392 1.74942C6.89414 1.7475 6.21084 1.88248 5.5736 2.14653C4.93636 2.41058 4.35785 2.79845 3.87158 3.28767L4.69642 4.1125C5.46758 3.34133 6.49308 2.91608 7.58392 2.91608C8.67475 2.91608 9.70025 3.34133 10.4714 4.1125C11.2426 4.88367 11.6678 5.90917 11.6678 7C11.6678 8.09083 11.2426 9.11633 10.4714 9.8875C9.70025 10.6587 8.67475 11.0839 7.58392 11.0839C6.49308 11.0839 5.46758 10.6587 4.69642 9.8875L3.87158 10.7123C4.86267 11.704 6.181 12.2506 7.58392 12.2506C8.98683 12.2506 10.3052 11.704 11.2962 10.7123C12.2879 9.72125 12.8345 8.40292 12.8345 7C12.8345 5.59708 12.2879 4.27875 11.2962 3.28767C10.81 2.79845 10.2315 2.41058 9.59423 2.14653C8.95699 1.88248 8.27369 1.7475 7.58392 1.74942V1.74942Z" fill="#484848"/>
</svg>
