<svg width="16" height="18" viewBox="0 0 16 18" fill="none" xmlns="http://www.w3.org/2000/svg">
<path d="M2.67733 14.4H16V1.8C16 0.8073 15.2027 0 14.2222 0H2.66667C1.59467 0 0 0.7191 0 2.7V15.3C0 17.2809 1.59467 18 2.66667 18H16V16.2H2.67733C2.26667 16.1892 1.77778 16.0254 1.77778 15.3C1.77778 15.2091 1.78578 15.1281 1.79911 15.0543C1.89867 14.5359 2.31822 14.409 2.67733 14.4V14.4ZM5.02044 5.0778C5.39043 4.70796 5.88942 4.50058 6.40933 4.50058C6.92925 4.50058 7.42824 4.70796 7.79822 5.0778L7.99733 5.2749L8.19556 5.0778C8.56569 4.7079 9.06483 4.5005 9.58489 4.5005C10.105 4.5005 10.6041 4.7079 10.9742 5.0778C11.1578 5.25658 11.3039 5.47106 11.4037 5.70836C11.5034 5.94567 11.5549 6.20093 11.5549 6.45885C11.5549 6.71677 11.5034 6.97203 11.4037 7.20934C11.3039 7.44664 11.1578 7.66112 10.9742 7.8399L7.99822 10.8L5.02133 7.8399C4.83756 7.66124 4.69133 7.44684 4.59141 7.20956C4.49149 6.97227 4.43995 6.71699 4.43986 6.45904C4.43978 6.20109 4.49116 5.94578 4.59093 5.70843C4.6907 5.47108 4.83679 5.25658 5.02044 5.0778V5.0778Z" fill="#3A3A3A"/>
</svg>
